<?xml version="1.0" standalone="no"?>
<!DOCTYPE svg PUBLIC "-//W3C//DTD SVG 20010904//EN"
 "http://www.w3.org/TR/2001/REC-SVG-20010904/DTD/svg10.dtd">
<svg version="1.0" xmlns="http://www.w3.org/2000/svg"
 width="400.000000pt" height="121.000000pt" viewBox="0 0 400.000000 121.000000"
 preserveAspectRatio="xMidYMid meet">

<g transform="translate(0.000000,121.000000) scale(0.100000,-0.100000)"
fill="#000000" stroke="none">
<path d="M519 1190 c-171 -27 -338 -138 -422 -283 -84 -142 -104 -330 -53
-481 33 -98 65 -152 128 -221 66 -72 145 -123 248 -158 154 -54 334 -37 477
45 291 165 386 556 203 835 -125 190 -361 297 -581 263z m14 -266 c18 -9 40
-24 50 -32 15 -13 22 -14 35 -4 38 26 92 52 112 52 18 0 20 -6 20 -54 0 -49
-2 -54 -25 -60 -14 -4 -34 -21 -45 -39 -18 -28 -20 -50 -20 -182 0 -132 2
-154 20 -182 11 -18 31 -35 45 -39 23 -6 25 -11 25 -60 0 -48 -2 -54 -20 -54
-20 0 -74 26 -112 52 -13 10 -20 9 -35 -4 -27 -23 -79 -48 -103 -48 -18 0 -20
6 -20 54 0 49 2 54 25 60 14 4 34 21 45 39 18 28 20 50 20 182 0 167 -7 191
-57 215 -31 14 -33 18 -33 68 0 46 2 52 20 52 12 0 35 -7 53 -16z"/>
<path d="M1550 920 l0 -70 75 0 75 0 0 70 0 70 -75 0 -75 0 0 -70z"/>
<path d="M2470 920 l0 -71 78 3 77 3 0 65 0 65 -77 3 -78 3 0 -71z"/>
<path d="M3197 983 c-4 -3 -7 -35 -7 -70 l0 -63 80 0 80 0 0 70 0 70 -73 0
c-41 0 -77 -3 -80 -7z"/>
<path d="M2820 850 l0 -70 -60 0 -60 0 0 -55 0 -55 50 0 50 0 0 -147 c0 -254
23 -288 205 -300 l95 -6 0 61 0 62 -54 0 c-84 0 -86 5 -86 181 l0 149 70 0 70
0 0 55 0 55 -70 0 -70 0 0 70 0 70 -70 0 -70 0 0 -70z"/>
<path d="M2070 778 c-19 -5 -49 -21 -67 -34 -40 -31 -43 -30 -43 6 l0 30 -70
0 -70 0 0 -280 0 -280 80 0 80 0 0 196 0 196 29 29 c42 41 107 41 153 0 l33
-29 3 -197 4 -196 76 3 77 3 0 205 c0 141 -4 217 -13 242 -33 92 -154 140
-272 106z"/>
<path d="M3633 780 c-54 -11 -92 -31 -125 -67 -25 -26 -48 -71 -48 -94 0 -5
33 -9 74 -9 69 0 76 2 94 27 17 23 28 27 83 31 75 5 105 -12 115 -64 l6 -32
-118 -3 c-106 -4 -125 -7 -176 -32 -45 -22 -61 -36 -77 -71 -37 -76 -22 -158
38 -209 75 -62 226 -63 308 -1 l32 24 3 -27 c3 -28 4 -28 73 -28 l70 0 3 180
c4 261 -15 321 -110 360 -49 19 -185 28 -245 15z m193 -324 c9 -24 -24 -85
-58 -106 -45 -27 -128 -28 -153 0 -22 24 -23 67 -2 87 30 30 203 46 213 19z"/>
<path d="M1550 500 l0 -280 75 0 75 0 0 280 0 280 -75 0 -75 0 0 -280z"/>
<path d="M2470 500 l0 -281 78 3 77 3 0 275 0 275 -77 3 -78 3 0 -281z"/>
<path d="M3190 500 l0 -280 80 0 80 0 0 280 0 280 -80 0 -80 0 0 -280z"/>
</g>
</svg>
