<svg width="181" height="64" viewBox="0 0 181 64" fill="none" xmlns="http://www.w3.org/2000/svg">
<path d="M0 0L63.3469 23.5102V40.4898L0 64V0Z" fill="url(#paint0_linear_8873_347)" fill-opacity="0.3"/>
<path d="M0 13.0613L63.3469 23.5103V40.4899L0 50.9388V13.0613Z" fill="url(#paint1_linear_8873_347)" fill-opacity="0.7"/>
<circle cx="63.3467" cy="32" r="8.4898" fill="white"/>
<path fill-rule="evenodd" clip-rule="evenodd" d="M170.223 41.9291C168.705 41.9291 167.297 41.6822 165.999 41.1885C164.719 40.6948 163.603 39.9999 162.652 39.1039C161.72 38.2079 160.988 37.1565 160.458 35.9497C159.946 34.7428 159.69 33.4262 159.69 31.9999C159.69 30.5737 159.946 29.2571 160.458 28.0502C160.988 26.8434 161.729 25.7919 162.68 24.8959C163.631 23.9999 164.746 23.3051 166.026 22.8114C167.306 22.3177 168.696 22.0708 170.195 22.0708C171.713 22.0708 173.103 22.3177 174.364 22.8114C175.644 23.3051 176.751 23.9999 177.683 24.8959C178.634 25.7919 179.375 26.8434 179.905 28.0502C180.435 29.2388 180.7 30.5554 180.7 31.9999C180.7 33.4262 180.435 34.7519 179.905 35.9771C179.375 37.1839 178.634 38.2354 177.683 39.1314C176.751 40.0091 175.644 40.6948 174.364 41.1885C173.103 41.6822 171.722 41.9291 170.223 41.9291ZM170.195 38.1439C171.055 38.1439 171.841 37.9977 172.554 37.7051C173.285 37.4125 173.925 36.9919 174.474 36.4434C175.023 35.8948 175.443 35.2457 175.736 34.4959C176.047 33.7462 176.202 32.9142 176.202 31.9999C176.202 31.0857 176.047 30.2537 175.736 29.5039C175.443 28.7542 175.023 28.1051 174.474 27.5565C173.944 27.0079 173.313 26.5874 172.581 26.2948C171.85 26.0022 171.055 25.8559 170.195 25.8559C169.336 25.8559 168.54 26.0022 167.809 26.2948C167.096 26.5874 166.465 27.0079 165.916 27.5565C165.368 28.1051 164.938 28.7542 164.627 29.5039C164.335 30.2537 164.188 31.0857 164.188 31.9999C164.188 32.8959 164.335 33.7279 164.627 34.4959C164.938 35.2457 165.359 35.8948 165.889 36.4434C166.437 36.9919 167.077 37.4125 167.809 37.7051C168.54 37.9977 169.336 38.1439 170.195 38.1439ZM150.525 41.6V22.4H154.969V41.6H150.525ZM122.957 22.4V41.6H127.126V30.3243L132.749 39.5702H134.751L140.404 30.076L140.429 41.6H144.598L144.543 22.4H140.895L133.824 34.3219L126.632 22.4H122.957ZM108.5 41.9291C105.775 41.9291 103.645 41.1702 102.109 39.6525C100.573 38.1348 99.8048 35.968 99.8048 33.152V22.4H104.248V32.9874C104.248 34.816 104.623 36.1325 105.373 36.9371C106.122 37.7417 107.174 38.144 108.527 38.144C109.88 38.144 110.932 37.7417 111.681 36.9371C112.431 36.1325 112.806 34.816 112.806 32.9874V22.4H117.194V33.152C117.194 35.968 116.426 38.1348 114.89 39.6525C113.354 41.1702 111.224 41.9291 108.5 41.9291ZM82.2856 22.4V41.6H96.3565V37.9794H86.7291V22.4H82.2856Z" fill="white"/>
<defs>
<linearGradient id="paint0_linear_8873_347" x1="7.83674" y1="32.6531" x2="64" y2="33.1034" gradientUnits="userSpaceOnUse">
<stop stop-color="white" stop-opacity="0"/>
<stop offset="0.5" stop-color="white"/>
<stop offset="1" stop-color="white"/>
</linearGradient>
<linearGradient id="paint1_linear_8873_347" x1="0" y1="32.6531" x2="64" y2="32.6531" gradientUnits="userSpaceOnUse">
<stop stop-color="white" stop-opacity="0"/>
<stop offset="1" stop-color="white"/>
</linearGradient>
</defs>
</svg>
