<?xml version="1.0" standalone="no"?>
<!DOCTYPE svg PUBLIC "-//W3C//DTD SVG 20010904//EN"
 "http://www.w3.org/TR/2001/REC-SVG-20010904/DTD/svg10.dtd">
<svg version="1.0" xmlns="http://www.w3.org/2000/svg"
 width="376.000000pt" height="96.000000pt" viewBox="0 0 376.000000 96.000000"
 preserveAspectRatio="xMidYMid meet">

<g transform="translate(0.000000,96.000000) scale(0.100000,-0.100000)"
fill="#000000" stroke="none">
<path d="M361 944 c-253 -68 -410 -331 -346 -579 67 -256 329 -415 580 -350
256 67 415 329 350 578 -67 259 -333 419 -584 351z m76 -220 l44 -25 32 19
c18 11 42 23 55 27 20 6 22 3 22 -30 0 -29 -7 -43 -35 -69 l-35 -33 0 -133 0
-133 35 -33 c28 -26 35 -40 35 -69 0 -33 -2 -36 -22 -30 -13 4 -38 15 -55 26
-32 18 -34 18 -65 0 -18 -11 -43 -22 -55 -26 -21 -6 -23 -3 -23 30 0 29 7 43
35 69 l35 33 0 133 0 133 -35 33 c-27 25 -35 41 -35 68 0 43 9 44 67 10z"/>
<path d="M1443 762 c-264 -94 -285 -456 -35 -579 49 -24 69 -28 142 -27 67 0
95 5 130 22 73 36 117 78 150 146 54 110 43 237 -29 332 -78 103 -236 150
-358 106z m188 -135 c60 -32 89 -84 89 -162 0 -80 -29 -132 -90 -162 -56 -29
-104 -29 -160 -1 -78 40 -115 127 -91 215 15 54 46 92 95 114 55 25 104 24
157 -4z"/>
<path d="M1940 466 l0 -306 65 0 65 0 0 95 0 95 69 0 c78 0 122 12 170 48 77
57 95 199 36 283 -51 71 -87 83 -257 87 l-148 3 0 -305z m242 174 c44 -13 58
-34 58 -88 0 -56 -23 -73 -102 -75 l-63 -2 -3 74 c-2 41 -1 80 2 88 6 16 56
17 108 3z"/>
<path d="M2442 713 l3 -58 65 0 65 0 3 58 3 57 -71 0 -71 0 3 -57z"/>
<path d="M3172 713 l3 -58 65 0 65 0 3 58 3 57 -71 0 -71 0 3 -57z"/>
<path d="M3430 666 c0 -54 0 -55 -32 -58 -32 -3 -33 -4 -33 -53 0 -49 1 -50
32 -53 l31 -3 4 -132 c4 -146 13 -174 69 -197 34 -14 92 -17 132 -7 25 7 27
11 27 62 0 53 -1 55 -24 49 -13 -3 -34 -1 -45 6 -19 10 -21 19 -21 115 l0 105
45 0 45 0 0 55 0 55 -45 0 -45 0 0 55 0 55 -70 0 -70 0 0 -54z"/>
<path d="M2875 610 c-17 -5 -40 -19 -52 -30 -29 -26 -33 -25 -33 5 0 24 -2 25
-65 25 l-65 0 0 -225 0 -225 65 0 65 0 0 128 c0 101 4 134 18 162 32 65 117
61 142 -6 6 -14 10 -84 10 -155 l0 -129 65 0 65 0 0 163 c0 136 -3 168 -19
203 -31 68 -122 107 -196 84z"/>
<path d="M2447 603 c-4 -3 -7 -105 -7 -225 l0 -218 70 0 70 0 0 225 0 225 -63
0 c-35 0 -67 -3 -70 -7z"/>
<path d="M3170 385 l0 -225 70 0 70 0 0 225 0 225 -70 0 -70 0 0 -225z"/>
</g>
</svg>
